<svg width="24" height="24" viewBox="0 0 24 24" fill="none" xmlns="http://www.w3.org/2000/svg">
  <!-- Google Play Logo -->
  <path d="M3 20.5V3.5C3 2.91 3.34 2.39 3.84 2.15L13.69 12L3.84 21.85C3.34 21.6 3 21.09 3 20.5Z" fill="#EA4335"/>
  <path d="M16.81 15.12L6.05 21.34L14.54 12.85L16.81 15.12Z" fill="#FBBC04"/>
  <path d="M16.81 8.88L14.54 11.15L6.05 2.66L16.81 8.88Z" fill="#34A853"/>
  <path d="M20.16 4.16C20.5 4.5 20.5 5.07 20.16 5.41L16.81 8.88L14.54 11.15L20.16 4.16Z" fill="#4285F4"/>
  <path d="M20.16 19.84L14.54 12.85L16.81 15.12L20.16 18.59C20.5 18.93 20.5 19.5 20.16 19.84Z" fill="#4285F4"/>
</svg>

